<?xml version="1.0" standalone="no"?>
<!DOCTYPE svg PUBLIC "-//W3C//DTD SVG 20010904//EN"
 "http://www.w3.org/TR/2001/REC-SVG-20010904/DTD/svg10.dtd">
<svg version="1.0" xmlns="http://www.w3.org/2000/svg"
 width="700.000000pt" height="700.000000pt" viewBox="0 0 700.000000 700.000000"
 preserveAspectRatio="xMidYMid meet">
<metadata>
Created by potrace 1.14, written by Peter Selinger 2001-2017
</metadata>
<g transform="translate(0.000000,700.000000) scale(0.100000,-0.100000)"
fill="#000000" stroke="none">
<path d="M1919 6996 c-2 -2 -42 -6 -89 -10 -662 -50 -1152 -287 -1444 -697
-69 -97 -157 -259 -191 -354 -10 -27 -22 -54 -25 -60 -7 -10 -76 -251 -84
-295 -33 -175 -39 -220 -54 -390 -4 -47 -7 -571 -7 -1165 0 -945 4 -1251 20
-1370 2 -16 7 -55 10 -85 4 -30 9 -63 11 -75 2 -11 7 -40 10 -65 10 -82 64
-300 96 -390 114 -321 295 -553 548 -702 186 -110 443 -192 700 -223 25 -3 56
-8 70 -10 27 -5 117 -13 225 -21 39 -3 187 -6 330 -9 143 -2 276 -6 295 -9 53
-10 153 -63 193 -104 32 -32 76 -88 139 -174 207 -284 454 -605 497 -645 166
-159 402 -185 589 -66 75 48 128 104 244 260 56 76 106 143 110 148 5 6 91
120 191 255 252 336 240 330 592 335 127 2 264 6 305 10 576 49 1016 237 1308
559 68 76 166 209 196 266 7 14 22 41 32 60 63 113 151 355 179 495 16 82 44
256 49 305 3 30 9 87 13 125 5 39 8 549 8 1135 0 1081 -4 1231 -35 1410 -5 30
-12 71 -15 90 -35 209 -156 529 -256 677 -16 24 -29 46 -29 48 0 3 -21 33 -47
67 -78 105 -249 268 -358 340 -203 135 -472 241 -730 287 -33 6 -69 13 -80 15
-11 2 -47 7 -80 10 -33 4 -73 10 -90 13 -32 7 -3339 16 -3346 9z"/>
</g>
</svg>
