<?xml version="1.0" standalone="no"?>
<!DOCTYPE svg PUBLIC "-//W3C//DTD SVG 20010904//EN"
 "http://www.w3.org/TR/2001/REC-SVG-20010904/DTD/svg10.dtd">
<svg version="1.0" xmlns="http://www.w3.org/2000/svg"
 width="556.000000pt" height="556.000000pt" viewBox="0 0 556.000000 556.000000"
 preserveAspectRatio="xMidYMid meet">
<metadata>
Created by potrace 1.14, written by Peter Selinger 2001-2017
</metadata>
<g transform="translate(0.000000,556.000000) scale(0.100000,-0.100000)"
fill="#000000" stroke="none">
<path d="M1385 5544 c-245 -28 -428 -76 -603 -159 -128 -61 -221 -125 -321
-220 -243 -232 -376 -533 -425 -965 -13 -112 -16 -284 -16 -1010 0 -862 4
-1002 35 -1215 79 -539 309 -860 720 -1008 197 -70 450 -105 825 -113 253 -6
267 -7 320 -31 30 -13 68 -36 84 -51 16 -15 133 -167 261 -338 171 -229 246
-320 283 -347 150 -110 305 -115 454 -14 56 38 92 81 318 382 231 307 260 342
305 365 47 24 61 25 270 31 242 8 371 20 515 51 313 66 556 193 740 384 220
229 340 526 385 954 18 166 22 1751 5 1921 -74 744 -427 1188 -1065 1339 -234
56 -170 54 -1625 56 -1085 2 -1368 -1 -1465 -12z"/>
</g>
</svg>
